<?xml version="1.0" encoding="UTF-8" standalone="no"?>
<!-- Created with Inkscape (http://www.inkscape.org/) -->

<svg
   xmlns:dc="http://purl.org/dc/elements/1.1/"
   xmlns:cc="http://creativecommons.org/ns#"
   xmlns:rdf="http://www.w3.org/1999/02/22-rdf-syntax-ns#"
   xmlns:svg="http://www.w3.org/2000/svg"
   xmlns="http://www.w3.org/2000/svg"
   xmlns:sodipodi="http://sodipodi.sourceforge.net/DTD/sodipodi-0.dtd"
   xmlns:inkscape="http://www.inkscape.org/namespaces/inkscape"
   width="210mm"
   height="297mm"
   viewBox="0 0 744.09448819 1052.3622047"
   id="svg9021"
   version="1.1"
   inkscape:version="0.91 r13725"
   sodipodi:docname="sketch.svg"
   inkscape:export-filename="/home/stanislaw/ST-Arm/artwork/sda-buttons.png"
   inkscape:export-xdpi="300"
   inkscape:export-ydpi="300">
  <defs
     id="defs9023">
    <marker
       inkscape:stockid="Arrow1Lend"
       orient="auto"
       refY="0.0"
       refX="0.0"
       id="Arrow1Lend"
       style="overflow:visible;"
       inkscape:isstock="true">
      <path
         id="path4219"
         d="M 0.0,0.0 L 5.0,-5.0 L -12.5,0.0 L 5.0,5.0 L 0.0,0.0 z "
         style="fill-rule:evenodd;stroke:#4d4d4d;stroke-width:1pt;stroke-opacity:1;fill:#4d4d4d;fill-opacity:1"
         transform="scale(0.8) rotate(180) translate(12.5,0)" />
    </marker>
    <marker
       inkscape:stockid="Arrow1Lend"
       orient="auto"
       refY="0"
       refX="0"
       id="Arrow1Lend-9"
       style="overflow:visible"
       inkscape:isstock="true">
      <path
         inkscape:connector-curvature="0"
         id="path4219-4"
         d="M 0,0 5,-5 -12.5,0 5,5 0,0 Z"
         style="fill:#4d4d4d;fill-opacity:1;fill-rule:evenodd;stroke:#4d4d4d;stroke-width:1pt;stroke-opacity:1"
         transform="matrix(-0.8,0,0,-0.8,-10,0)" />
    </marker>
    <marker
       inkscape:stockid="Arrow1Lend"
       orient="auto"
       refY="0"
       refX="0"
       id="Arrow1Lend-8"
       style="overflow:visible"
       inkscape:isstock="true">
      <path
         inkscape:connector-curvature="0"
         id="path4219-45"
         d="M 0,0 5,-5 -12.5,0 5,5 0,0 Z"
         style="fill:#4d4d4d;fill-opacity:1;fill-rule:evenodd;stroke:#4d4d4d;stroke-width:1pt;stroke-opacity:1"
         transform="matrix(-0.8,0,0,-0.8,-10,0)" />
    </marker>
    <marker
       inkscape:stockid="Arrow1Lend"
       orient="auto"
       refY="0"
       refX="0"
       id="Arrow1Lend-3"
       style="overflow:visible"
       inkscape:isstock="true">
      <path
         inkscape:connector-curvature="0"
         id="path4219-6"
         d="M 0,0 5,-5 -12.5,0 5,5 0,0 Z"
         style="fill:#4d4d4d;fill-opacity:1;fill-rule:evenodd;stroke:#4d4d4d;stroke-width:1pt;stroke-opacity:1"
         transform="matrix(-0.8,0,0,-0.8,-10,0)" />
    </marker>
    <marker
       inkscape:stockid="Arrow1Lend"
       orient="auto"
       refY="0"
       refX="0"
       id="Arrow1Lend-0"
       style="overflow:visible"
       inkscape:isstock="true">
      <path
         inkscape:connector-curvature="0"
         id="path4219-63"
         d="M 0,0 5,-5 -12.5,0 5,5 0,0 Z"
         style="fill:#4d4d4d;fill-opacity:1;fill-rule:evenodd;stroke:#4d4d4d;stroke-width:1pt;stroke-opacity:1"
         transform="matrix(-0.8,0,0,-0.8,-10,0)" />
    </marker>
    <marker
       inkscape:stockid="Arrow1Lend"
       orient="auto"
       refY="0"
       refX="0"
       id="Arrow1Lend-06"
       style="overflow:visible"
       inkscape:isstock="true">
      <path
         inkscape:connector-curvature="0"
         id="path4219-1"
         d="M 0,0 5,-5 -12.5,0 5,5 0,0 Z"
         style="fill:#4d4d4d;fill-opacity:1;fill-rule:evenodd;stroke:#4d4d4d;stroke-width:1pt;stroke-opacity:1"
         transform="matrix(-0.8,0,0,-0.8,-10,0)" />
    </marker>
  </defs>
  <sodipodi:namedview
     id="base"
     pagecolor="#ffffff"
     bordercolor="#666666"
     borderopacity="1.0"
     inkscape:pageopacity="0.0"
     inkscape:pageshadow="2"
     inkscape:zoom="1.4142136"
     inkscape:cx="166.4251"
     inkscape:cy="839.07873"
     inkscape:document-units="px"
     inkscape:current-layer="layer1"
     showgrid="false"
     inkscape:window-width="1680"
     inkscape:window-height="1020"
     inkscape:window-x="0"
     inkscape:window-y="0"
     inkscape:window-maximized="1" />
  <metadata
     id="metadata9026">
    <rdf:RDF>
      <cc:Work
         rdf:about="">
        <dc:format>image/svg+xml</dc:format>
        <dc:type
           rdf:resource="http://purl.org/dc/dcmitype/StillImage" />
        <dc:title></dc:title>
      </cc:Work>
    </rdf:RDF>
  </metadata>
  <g
     inkscape:label="Vrstva 1"
     inkscape:groupmode="layer"
     id="layer1">
    <path
       style="fill:none;fill-opacity:1;fill-rule:evenodd;stroke:#000000;stroke-width:4.46772766;stroke-linecap:butt;stroke-linejoin:miter;stroke-miterlimit:1.60000002;stroke-dasharray:none;stroke-dashoffset:0;stroke-opacity:1"
       d="m 171.87969,36.840095 0,285.767845 c 1.83109,21.32415 0.31448,54.37966 28.98386,68.89773 l 175.26152,0.17027 c 29.5304,-15.14153 27.10088,-52.41875 27.89697,-70.57666 l 0,-283.703142 z"
       id="path4301"
       inkscape:connector-curvature="0"
       sodipodi:nodetypes="ccccccc" />
    <path
       style="fill:none;fill-opacity:1;fill-rule:evenodd;stroke:#000000;stroke-width:4.49197054;stroke-linecap:butt;stroke-linejoin:miter;stroke-miterlimit:1.60000002;stroke-dasharray:none;stroke-dashoffset:0;stroke-opacity:1"
       d="m 183.77982,37.414422 0,273.792508 c 0.41124,25.79259 3.04245,71.24763 28.46455,72.76578 l 153.96526,-0.57722 c 27.3529,0.33022 28.45496,-45.92792 29.11776,-70.50166 l 0.59422,-276.041339 z"
       id="path4303"
       inkscape:connector-curvature="0"
       sodipodi:nodetypes="ccccccc" />
    <path
       style="fill:none;fill-opacity:1;fill-rule:evenodd;stroke:#000000;stroke-width:4.43162775;stroke-linecap:butt;stroke-linejoin:miter;stroke-miterlimit:1.60000002;stroke-dasharray:none;stroke-dashoffset:0;stroke-opacity:1"
       d="m 198.87198,61.043419 179.50995,0 0,243.981381 -178.32112,0 z"
       id="path4305"
       inkscape:connector-curvature="0" />
    <path
       style="fill:none;fill-opacity:1;fill-rule:evenodd;stroke:#000000;stroke-width:4.43162775;stroke-linecap:butt;stroke-linejoin:miter;stroke-miterlimit:1.60000002;stroke-dasharray:none;stroke-dashoffset:0;stroke-opacity:1"
       d="m 274.00308,350.58173 30.26214,0 c -2.30807,6.97713 -3.56736,12.01946 -14.29046,12.57153 -11.87121,-0.009 -13.62738,-6.2339 -15.97168,-12.57153 z"
       id="path4307"
       inkscape:connector-curvature="0"
       sodipodi:nodetypes="cccc" />
    <path
       style="fill:none;fill-opacity:1;fill-rule:evenodd;stroke:#000000;stroke-width:4.43162775;stroke-linecap:butt;stroke-linejoin:miter;stroke-miterlimit:1.60000002;stroke-dasharray:none;stroke-dashoffset:0;stroke-opacity:1"
       d="m 274.00996,338.7968 30.26212,0 c -2.30803,-6.97725 -3.56727,-12.01951 -14.29046,-12.57159 -11.87108,0.009 -13.62731,6.23391 -15.97166,12.57159 z"
       id="path4307-7"
       inkscape:connector-curvature="0"
       sodipodi:nodetypes="cccc" />
    <path
       style="fill:none;fill-opacity:1;fill-rule:evenodd;stroke:#000000;stroke-width:4.43162775;stroke-linecap:butt;stroke-linejoin:miter;stroke-miterlimit:1.60000002;stroke-dasharray:none;stroke-dashoffset:0;stroke-opacity:1"
       d="m 386.49669,347.00852 3.40139,-27.67443 c -7.79265,1.32636 -13.37829,1.91126 -15.17965,11.65549 -1.32614,10.85696 5.19905,13.16279 11.77826,16.01894 z"
       id="path4307-7-7"
       inkscape:connector-curvature="0"
       sodipodi:nodetypes="cccc" />
    <path
       inkscape:connector-curvature="0"
       style="opacity:1;fill:none;fill-opacity:1;stroke:#000000;stroke-width:3.78450727;stroke-linecap:round;stroke-linejoin:miter;stroke-miterlimit:1.60000002;stroke-dasharray:none;stroke-dashoffset:0;stroke-opacity:1"
       d="m 229.44563,345.36409 a 11.210284,10.194018 0 0 1 -11.21031,10.19398 11.210284,10.194018 0 0 1 -11.21024,-10.19398 11.210284,10.194018 0 0 1 11.21024,-10.19405 11.210284,10.194018 0 0 1 11.21031,10.19405 z"
       id="path4324-3" />
    <path
       inkscape:connector-curvature="0"
       style="opacity:1;fill:none;fill-opacity:1;stroke:#000000;stroke-width:3.78450727;stroke-linecap:round;stroke-linejoin:miter;stroke-miterlimit:1.60000002;stroke-dasharray:none;stroke-dashoffset:0;stroke-opacity:1"
       d="m 262.21943,345.3645 a 11.210284,10.194018 0 0 1 -11.21031,10.19398 11.210284,10.194018 0 0 1 -11.21026,-10.19398 11.210284,10.194018 0 0 1 11.21026,-10.19405 11.210284,10.194018 0 0 1 11.21031,10.19405 z"
       id="path4324-3-5" />
    <path
       inkscape:connector-curvature="0"
       style="opacity:1;fill:none;fill-opacity:1;stroke:#000000;stroke-width:3.78450727;stroke-linecap:round;stroke-linejoin:miter;stroke-miterlimit:1.60000002;stroke-dasharray:none;stroke-dashoffset:0;stroke-opacity:1"
       d="m 335.92212,344.95664 a 11.210284,10.194018 0 0 1 -11.2103,10.194 11.210284,10.194018 0 0 1 -11.2103,-10.194 11.210284,10.194018 0 0 1 11.2103,-10.19403 11.210284,10.194018 0 0 1 11.2103,10.19403 z"
       id="path4324-3-3" />
    <path
       inkscape:connector-curvature="0"
       style="opacity:1;fill:none;fill-opacity:1;stroke:#000000;stroke-width:3.78450727;stroke-linecap:round;stroke-linejoin:miter;stroke-miterlimit:1.60000002;stroke-dasharray:none;stroke-dashoffset:0;stroke-opacity:1"
       d="m 368.69587,344.95705 a 11.210284,10.194018 0 0 1 -11.2103,10.19399 11.210284,10.194018 0 0 1 -11.21025,-10.19399 11.210284,10.194018 0 0 1 11.21025,-10.19403 11.210284,10.194018 0 0 1 11.2103,10.19403 z"
       id="path4324-3-5-5" />
    <rect
       style="fill:#808080;fill-opacity:1;stroke:none;stroke-width:3.4000001;stroke-miterlimit:4;stroke-dasharray:none;stroke-opacity:1"
       id="rect5367"
       width="19.187269"
       height="15.49741"
       x="390.36182"
       y="10.793943"
       ry="0.20659989" />
    <rect
       style="fill:#808080;fill-opacity:1;stroke:none;stroke-width:3.4000001;stroke-miterlimit:4;stroke-dasharray:none;stroke-opacity:1"
       id="rect5367-3"
       width="12.5692"
       height="15.526658"
       x="390.77841"
       y="18.542648"
       ry="0.20698981" />
  </g>
</svg>
