M48
;DRILL file {KiCad 4.0.7-e2-6376~58~ubuntu16.04.1} date Mon Sep  3 10:16:48 2018
;FORMAT={-:-/ absolute / metric / decimal}
FMAT,2
METRIC,TZ
T1C0.400
T2C0.800
%
G90
G05
M71
T1
X183.5Y-109.25
X185.18Y-105.814
X186.692Y-105.692
X188.25Y-108.75
X194.Y-109.25
X194.5Y-106.
X195.375Y-109.25
X196.175Y-109.25
X197.Y-109.25
X197.928Y-112.724
X198.681Y-112.993
X198.683Y-113.875
X201.5Y-113.25
X203.75Y-106.5
X203.75Y-108.75
T2
X183.5Y-102.25
X183.5Y-104.25
X185.5Y-102.25
X185.5Y-104.25
X187.5Y-102.25
X187.5Y-104.25
X189.5Y-102.25
X189.5Y-104.25
X191.5Y-102.25
X191.5Y-104.25
X193.5Y-102.25
X193.5Y-104.25
X195.5Y-102.25
X195.5Y-104.25
X197.5Y-102.25
X197.5Y-104.25
X199.5Y-102.25
X199.5Y-104.25
X201.5Y-102.25
X201.5Y-104.25
T0
M30
