G04 #@! TF.FileFunction,Copper,L1,Top,Signal*
%FSLAX46Y46*%
G04 Gerber Fmt 4.6, Leading zero omitted, Abs format (unit mm)*
G04 Created by KiCad (PCBNEW 4.0.7-e2-6376~58~ubuntu16.04.1) date Mon Sep  3 10:25:07 2018*
%MOMM*%
%LPD*%
G01*
G04 APERTURE LIST*
%ADD10C,0.100000*%
%ADD11C,0.300000*%
%ADD12R,0.250000X2.100000*%
%ADD13R,0.250000X1.600000*%
%ADD14R,1.700000X1.500000*%
%ADD15R,1.350000X1.350000*%
%ADD16O,1.350000X1.350000*%
%ADD17C,0.600000*%
%ADD18C,0.250000*%
%ADD19C,0.254000*%
G04 APERTURE END LIST*
D10*
D11*
X209178571Y-105464286D02*
X209178571Y-104607143D01*
X210678571Y-105035714D02*
X209178571Y-105035714D01*
X209178571Y-103821429D02*
X209178571Y-103535715D01*
X209250000Y-103392857D01*
X209392857Y-103250000D01*
X209678571Y-103178572D01*
X210178571Y-103178572D01*
X210464286Y-103250000D01*
X210607143Y-103392857D01*
X210678571Y-103535715D01*
X210678571Y-103821429D01*
X210607143Y-103964286D01*
X210464286Y-104107143D01*
X210178571Y-104178572D01*
X209678571Y-104178572D01*
X209392857Y-104107143D01*
X209250000Y-103964286D01*
X209178571Y-103821429D01*
X210678571Y-102535714D02*
X209178571Y-102535714D01*
X209178571Y-101964286D01*
X209250000Y-101821428D01*
X209321429Y-101750000D01*
X209464286Y-101678571D01*
X209678571Y-101678571D01*
X209821429Y-101750000D01*
X209892857Y-101821428D01*
X209964286Y-101964286D01*
X209964286Y-102535714D01*
D12*
X185250000Y-110750000D03*
D13*
X185750000Y-111000000D03*
X186250000Y-111000000D03*
X186750000Y-111000000D03*
X187250000Y-111000000D03*
X187750000Y-111000000D03*
X188250000Y-111000000D03*
X188750000Y-111000000D03*
X189250000Y-111000000D03*
X189750000Y-111000000D03*
X190250000Y-111000000D03*
X190750000Y-111000000D03*
X191250000Y-111000000D03*
X191750000Y-111000000D03*
X192250000Y-111000000D03*
X192750000Y-111000000D03*
X193250000Y-111000000D03*
X193750000Y-111000000D03*
X194250000Y-111000000D03*
X194750000Y-111000000D03*
X195250000Y-111000000D03*
X195750000Y-111000000D03*
X196250000Y-111000000D03*
X196750000Y-111000000D03*
X197250000Y-111000000D03*
X197750000Y-111000000D03*
X198250000Y-111000000D03*
X198750000Y-111000000D03*
X199250000Y-111000000D03*
X199750000Y-111000000D03*
X200250000Y-111000000D03*
X200750000Y-111000000D03*
X201250000Y-111000000D03*
X201750000Y-111000000D03*
X202250000Y-111000000D03*
X202750000Y-111000000D03*
X203250000Y-111000000D03*
X203750000Y-111000000D03*
X204250000Y-111000000D03*
X204750000Y-111000000D03*
D14*
X206250000Y-114000000D03*
X183750000Y-114250000D03*
D15*
X201500000Y-102250000D03*
D16*
X201500000Y-104250000D03*
X199500000Y-102250000D03*
X199500000Y-104250000D03*
X197500000Y-102250000D03*
X197500000Y-104250000D03*
X195500000Y-102250000D03*
X195500000Y-104250000D03*
X193500000Y-102250000D03*
X193500000Y-104250000D03*
X191500000Y-102250000D03*
X191500000Y-104250000D03*
X189500000Y-102250000D03*
X189500000Y-104250000D03*
X187500000Y-102250000D03*
X187500000Y-104250000D03*
X185500000Y-102250000D03*
X185500000Y-104250000D03*
X183500000Y-102250000D03*
X183500000Y-104250000D03*
D17*
X185180054Y-105813938D03*
X186691942Y-105691942D03*
X203750000Y-106500000D03*
X203750000Y-108750000D03*
X188250000Y-108750000D03*
X194500000Y-106000000D03*
X195375000Y-109250000D03*
X194000000Y-109250000D03*
X198683058Y-113875000D03*
X198681441Y-112992733D03*
X197927822Y-112724290D03*
X196175003Y-109250000D03*
X197000000Y-109250000D03*
X183500000Y-109250000D03*
X201500000Y-113250000D03*
D18*
X185250000Y-107000000D02*
X185250000Y-105883884D01*
X185250000Y-105883884D02*
X185180054Y-105813938D01*
X187750000Y-104500000D02*
X187500000Y-104250000D01*
X185250000Y-110750000D02*
X185250000Y-107000000D01*
X185750000Y-111000000D02*
X185750000Y-109950000D01*
X185750000Y-109950000D02*
X185875001Y-109824999D01*
X185875001Y-109824999D02*
X185875001Y-105624999D01*
X185875001Y-105624999D02*
X186500000Y-105000000D01*
X186500000Y-105000000D02*
X186500001Y-103250001D01*
X186500001Y-103250001D02*
X185500000Y-102250000D01*
X186566943Y-106316942D02*
X186566943Y-105816941D01*
X186566943Y-105816941D02*
X186691942Y-105691942D01*
X186250000Y-111000000D02*
X186250000Y-110086410D01*
X186250000Y-110086410D02*
X186566943Y-109769467D01*
X186566943Y-109769467D02*
X186566943Y-106316942D01*
X184750000Y-112750000D02*
X186050000Y-112750000D01*
X186750000Y-112050000D02*
X186750000Y-111000000D01*
X186050000Y-112750000D02*
X186750000Y-112050000D01*
X184500000Y-112500000D02*
X184750000Y-112750000D01*
X184500000Y-103769998D02*
X184500000Y-112500000D01*
X183500000Y-102250000D02*
X184500001Y-103250001D01*
X184500001Y-103250001D02*
X184500000Y-103769998D01*
X184174999Y-101575001D02*
X183500000Y-102250000D01*
X200250000Y-109250000D02*
X199750000Y-109250000D01*
X200250000Y-111000000D02*
X200250000Y-109250000D01*
X198750000Y-109250000D02*
X199250000Y-109250000D01*
X192750000Y-111000000D02*
X192750000Y-112750000D01*
X192750000Y-112750000D02*
X192750000Y-113000000D01*
X187250000Y-112500000D02*
X187500000Y-112750000D01*
X187500000Y-112750000D02*
X192750000Y-112750000D01*
X187250000Y-111000000D02*
X187250000Y-112500000D01*
X199750000Y-111000000D02*
X199750000Y-113000000D01*
X200250000Y-111000000D02*
X200250000Y-112250000D01*
X200250000Y-112250000D02*
X200750000Y-112250000D01*
X200750000Y-112250000D02*
X200750000Y-111000000D01*
X198250000Y-109500000D02*
X198250000Y-109750000D01*
X197574998Y-109750000D02*
X198250000Y-109750000D01*
X198250000Y-109750000D02*
X198250000Y-111000000D01*
X197500000Y-109675002D02*
X197574998Y-109750000D01*
X197250000Y-111000000D02*
X197250000Y-109950000D01*
X197250000Y-109950000D02*
X197500000Y-109700000D01*
X197500000Y-109700000D02*
X197500000Y-109675002D01*
X198250000Y-109250000D02*
X198250000Y-109500000D01*
X198200000Y-109500000D02*
X198250000Y-109500000D01*
X197750000Y-111000000D02*
X197750000Y-109950000D01*
X197750000Y-109950000D02*
X198200000Y-109500000D01*
X202250000Y-109500000D02*
X202500000Y-109250000D01*
X202500000Y-109250000D02*
X202750000Y-109250000D01*
X202250000Y-111000000D02*
X202250000Y-109500000D01*
X198750000Y-109250000D02*
X198250000Y-109250000D01*
X198750000Y-111000000D02*
X198750000Y-109250000D01*
X199250000Y-109250000D02*
X199250000Y-111000000D01*
X199750000Y-109250000D02*
X199250000Y-109250000D01*
X199750000Y-111000000D02*
X199750000Y-109250000D01*
X202750000Y-111000000D02*
X202750000Y-109250000D01*
X204750000Y-112500000D02*
X203000000Y-112500000D01*
X204750000Y-111000000D02*
X204750000Y-112500000D01*
X203250000Y-112750000D02*
X203250000Y-111000000D01*
X202750000Y-112750000D02*
X203250000Y-112750000D01*
X202750000Y-111000000D02*
X202750000Y-112750000D01*
X202250000Y-112000000D02*
X202250000Y-111000000D01*
X202000000Y-112250000D02*
X202250000Y-112000000D01*
X201950000Y-112250000D02*
X202000000Y-112250000D01*
X201750000Y-111000000D02*
X201750000Y-112050000D01*
X201750000Y-112050000D02*
X201950000Y-112250000D01*
X192750000Y-111000000D02*
X192750000Y-107750000D01*
X192750000Y-107750000D02*
X193500000Y-107000000D01*
X193500000Y-107000000D02*
X193500000Y-104250000D01*
X203750000Y-106500000D02*
X203750000Y-101000000D01*
X203750000Y-109250000D02*
X203750000Y-108750000D01*
X203750000Y-111000000D02*
X203750000Y-109250000D01*
X204250000Y-111000000D02*
X204250000Y-109950000D01*
X204250000Y-109950000D02*
X203750000Y-109450000D01*
X203750000Y-109450000D02*
X203750000Y-109250000D01*
X188250000Y-108750000D02*
X188250000Y-109500000D01*
X187750000Y-109950000D02*
X188200000Y-109500000D01*
X188250000Y-109500000D02*
X188250000Y-111000000D01*
X187750000Y-111000000D02*
X187750000Y-109950000D01*
X188200000Y-109500000D02*
X188250000Y-109500000D01*
X193500000Y-102250000D02*
X194500000Y-103250000D01*
X194500000Y-103250000D02*
X194500000Y-106000000D01*
X203000000Y-100250000D02*
X195500000Y-100250000D01*
X195500000Y-100250000D02*
X193500000Y-102250000D01*
X203750000Y-101000000D02*
X203000000Y-100250000D01*
X187500000Y-102250000D02*
X188500000Y-103250000D01*
X188500000Y-103250000D02*
X188500000Y-108074998D01*
X188500000Y-108074998D02*
X189200001Y-108774999D01*
X189200001Y-110950001D02*
X189250000Y-111000000D01*
X189200001Y-108774999D02*
X189200001Y-110950001D01*
X189500000Y-104250000D02*
X189500000Y-105204594D01*
X189500000Y-105204594D02*
X189700001Y-105404595D01*
X189700001Y-110950001D02*
X189750000Y-111000000D01*
X189700001Y-105404595D02*
X189700001Y-110950001D01*
X190250000Y-111000000D02*
X190250000Y-108500000D01*
X190250000Y-108500000D02*
X190500000Y-108250000D01*
X190500000Y-108250000D02*
X190500000Y-103769998D01*
X190500000Y-103769998D02*
X189500000Y-102769998D01*
X189500000Y-102769998D02*
X189500000Y-102250000D01*
X190750000Y-111000000D02*
X190750000Y-108636410D01*
X190750000Y-108636410D02*
X191500000Y-107886410D01*
X191500000Y-107886410D02*
X191500000Y-107500000D01*
X191500000Y-107500000D02*
X191500000Y-104250000D01*
X192250000Y-111000000D02*
X192250000Y-109750000D01*
X192250000Y-109750000D02*
X191750000Y-109250000D01*
X191750000Y-109250000D02*
X191750000Y-108272820D01*
X191750000Y-108272820D02*
X192250000Y-107772820D01*
X192250000Y-107772820D02*
X192250000Y-105250000D01*
X192250000Y-105250000D02*
X192500000Y-105000000D01*
X192500000Y-105000000D02*
X192500001Y-103250001D01*
X192500001Y-103250001D02*
X191500000Y-102250000D01*
X197500000Y-105750000D02*
X196250000Y-105750000D01*
X193250000Y-109000000D02*
X193250000Y-111000000D01*
X196075007Y-105924993D02*
X195952209Y-105924993D01*
X196250000Y-105750000D02*
X196075007Y-105924993D01*
X195952209Y-105924993D02*
X193250000Y-108627202D01*
X193250000Y-108627202D02*
X193250000Y-109000000D01*
X201500000Y-102250000D02*
X201500000Y-101325000D01*
X201500000Y-101325000D02*
X201424999Y-101249999D01*
X201424999Y-101249999D02*
X199019999Y-101249999D01*
X199019999Y-101249999D02*
X198500000Y-101769998D01*
X198500000Y-101769998D02*
X198500000Y-104750000D01*
X198500000Y-104750000D02*
X197500000Y-105750000D01*
X195375000Y-109250000D02*
X195375000Y-107775022D01*
X195375000Y-107775022D02*
X196325011Y-106825011D01*
X196325011Y-106825011D02*
X199236401Y-106825011D01*
X199236401Y-106825011D02*
X200950009Y-105111403D01*
X200950009Y-105111403D02*
X200950009Y-104799991D01*
X200950009Y-104799991D02*
X201500000Y-104250000D01*
X194000000Y-109250000D02*
X193750000Y-109500000D01*
X193750000Y-109500000D02*
X193750000Y-111000000D01*
X199500000Y-102250000D02*
X200500000Y-103250000D01*
X200500000Y-104925002D02*
X199050001Y-106375001D01*
X200500000Y-103250000D02*
X200500000Y-104925002D01*
X199050001Y-106375001D02*
X196138610Y-106375002D01*
X196138610Y-106375002D02*
X194750000Y-107763612D01*
X194750000Y-107763612D02*
X194750000Y-109000000D01*
X194750000Y-109500000D02*
X194250000Y-110000000D01*
X194750000Y-109000000D02*
X194750000Y-109500000D01*
X194250000Y-110000000D02*
X194250000Y-111000000D01*
X197450736Y-114000000D02*
X197575736Y-113875000D01*
X197575736Y-113875000D02*
X198683058Y-113875000D01*
X195250000Y-114000000D02*
X194750000Y-113500000D01*
X194750000Y-113500000D02*
X194750000Y-111000000D01*
X197450736Y-114000000D02*
X195250000Y-114000000D01*
X198000000Y-113875000D02*
X197575736Y-113875000D01*
X194750000Y-112125000D02*
X194750000Y-111000000D01*
X197314326Y-113500000D02*
X197389336Y-113424990D01*
X197389336Y-113424990D02*
X198249184Y-113424990D01*
X198249184Y-113424990D02*
X198681441Y-112992733D01*
X195250000Y-111000000D02*
X195250000Y-113363590D01*
X195250000Y-113363590D02*
X195386410Y-113500000D01*
X195386410Y-113500000D02*
X197314326Y-113500000D01*
X196275710Y-112724290D02*
X195750000Y-112198580D01*
X195750000Y-112198580D02*
X195750000Y-111000000D01*
X197927822Y-112724290D02*
X196275710Y-112724290D01*
X196175003Y-109250000D02*
X196250000Y-109324997D01*
X196250000Y-109324997D02*
X196250000Y-111000000D01*
X197000000Y-109250000D02*
X196750000Y-109500000D01*
X196750000Y-109500000D02*
X196750000Y-111000000D01*
X183500000Y-105500000D02*
X183500000Y-106000000D01*
X183500000Y-104250000D02*
X183500000Y-105500000D01*
X183500000Y-105500000D02*
X183500000Y-109250000D01*
X201500000Y-113250000D02*
X201250000Y-113000000D01*
X201250000Y-113000000D02*
X201250000Y-111000000D01*
D19*
G36*
X193717582Y-100957616D02*
X193500000Y-100914336D01*
X192998685Y-101014054D01*
X192573690Y-101298026D01*
X192500000Y-101408311D01*
X192426310Y-101298026D01*
X192001315Y-101014054D01*
X191500000Y-100914336D01*
X190998685Y-101014054D01*
X190573690Y-101298026D01*
X190500000Y-101408311D01*
X190426310Y-101298026D01*
X190001315Y-101014054D01*
X189500000Y-100914336D01*
X188998685Y-101014054D01*
X188573690Y-101298026D01*
X188500000Y-101408311D01*
X188426310Y-101298026D01*
X188001315Y-101014054D01*
X187500000Y-100914336D01*
X186998685Y-101014054D01*
X186573690Y-101298026D01*
X186500000Y-101408311D01*
X186426310Y-101298026D01*
X186001315Y-101014054D01*
X185500000Y-100914336D01*
X184998685Y-101014054D01*
X184789887Y-101153568D01*
X184712400Y-101037600D01*
X184465839Y-100872853D01*
X184174999Y-100815001D01*
X183884160Y-100872853D01*
X183748191Y-100963704D01*
X183500000Y-100914336D01*
X182998685Y-101014054D01*
X182573690Y-101298026D01*
X182289718Y-101723021D01*
X182190000Y-102224336D01*
X182190000Y-102275664D01*
X182289718Y-102776979D01*
X182573690Y-103201974D01*
X182645566Y-103250000D01*
X182573690Y-103298026D01*
X182289718Y-103723021D01*
X182190000Y-104224336D01*
X182190000Y-104275664D01*
X182289718Y-104776979D01*
X182573690Y-105201974D01*
X182740000Y-105313099D01*
X182740000Y-108687537D01*
X182707808Y-108719673D01*
X182565162Y-109063201D01*
X182564838Y-109435167D01*
X182706883Y-109778943D01*
X182969673Y-110042192D01*
X183313201Y-110184838D01*
X183685167Y-110185162D01*
X183740000Y-110162506D01*
X183740000Y-112500000D01*
X183797852Y-112790839D01*
X183839093Y-112852560D01*
X182900000Y-112852560D01*
X182664683Y-112896838D01*
X182448559Y-113035910D01*
X182303569Y-113248110D01*
X182252560Y-113500000D01*
X182252560Y-115000000D01*
X182296838Y-115235317D01*
X182435910Y-115451441D01*
X182648110Y-115596431D01*
X182900000Y-115647440D01*
X184600000Y-115647440D01*
X184835317Y-115603162D01*
X185051441Y-115464090D01*
X185196431Y-115251890D01*
X185247440Y-115000000D01*
X185247440Y-113510000D01*
X186050000Y-113510000D01*
X186340839Y-113452148D01*
X186587401Y-113287401D01*
X187287401Y-112587402D01*
X187410010Y-112403903D01*
X187447808Y-112411558D01*
X187471250Y-112435000D01*
X187501310Y-112435000D01*
X187521753Y-112426532D01*
X187625000Y-112447440D01*
X187875000Y-112447440D01*
X188004589Y-112423056D01*
X188125000Y-112447440D01*
X188375000Y-112447440D01*
X188504589Y-112423056D01*
X188625000Y-112447440D01*
X188875000Y-112447440D01*
X189004589Y-112423056D01*
X189125000Y-112447440D01*
X189375000Y-112447440D01*
X189504589Y-112423056D01*
X189625000Y-112447440D01*
X189875000Y-112447440D01*
X190004589Y-112423056D01*
X190125000Y-112447440D01*
X190375000Y-112447440D01*
X190504589Y-112423056D01*
X190625000Y-112447440D01*
X190875000Y-112447440D01*
X191004589Y-112423056D01*
X191125000Y-112447440D01*
X191375000Y-112447440D01*
X191504589Y-112423056D01*
X191625000Y-112447440D01*
X191875000Y-112447440D01*
X192004589Y-112423056D01*
X192125000Y-112447440D01*
X192375000Y-112447440D01*
X192480705Y-112427550D01*
X192498690Y-112435000D01*
X192528750Y-112435000D01*
X192549062Y-112414688D01*
X192610317Y-112403162D01*
X192750727Y-112312810D01*
X192873110Y-112396431D01*
X192947808Y-112411558D01*
X192971250Y-112435000D01*
X193001310Y-112435000D01*
X193021753Y-112426532D01*
X193125000Y-112447440D01*
X193375000Y-112447440D01*
X193504589Y-112423056D01*
X193625000Y-112447440D01*
X193875000Y-112447440D01*
X193990000Y-112425801D01*
X193990000Y-113500000D01*
X194047852Y-113790839D01*
X194212599Y-114037401D01*
X194712599Y-114537401D01*
X194959161Y-114702148D01*
X195250000Y-114760000D01*
X197450736Y-114760000D01*
X197741575Y-114702148D01*
X197842069Y-114635000D01*
X198120595Y-114635000D01*
X198152731Y-114667192D01*
X198496259Y-114809838D01*
X198868225Y-114810162D01*
X199212001Y-114668117D01*
X199475250Y-114405327D01*
X199617896Y-114061799D01*
X199618220Y-113689833D01*
X199511566Y-113431709D01*
X199616279Y-113179532D01*
X199616603Y-112807566D01*
X199474558Y-112463790D01*
X199408543Y-112397660D01*
X199451847Y-112415597D01*
X199471250Y-112435000D01*
X199528750Y-112435000D01*
X199548153Y-112415597D01*
X199734699Y-112338327D01*
X199750000Y-112323026D01*
X199765301Y-112338327D01*
X199951847Y-112415597D01*
X199971250Y-112435000D01*
X200028750Y-112435000D01*
X200048153Y-112415597D01*
X200234699Y-112338327D01*
X200250000Y-112323026D01*
X200265301Y-112338327D01*
X200451847Y-112415597D01*
X200471250Y-112435000D01*
X200490000Y-112435000D01*
X200490000Y-113000000D01*
X200547852Y-113290839D01*
X200564941Y-113316415D01*
X200564838Y-113435167D01*
X200706883Y-113778943D01*
X200969673Y-114042192D01*
X201313201Y-114184838D01*
X201685167Y-114185162D01*
X202028943Y-114043117D01*
X202292192Y-113780327D01*
X202434838Y-113436799D01*
X202435000Y-113250000D01*
X204752560Y-113250000D01*
X204752560Y-114750000D01*
X204796838Y-114985317D01*
X204935910Y-115201441D01*
X205148110Y-115346431D01*
X205400000Y-115397440D01*
X207100000Y-115397440D01*
X207335317Y-115353162D01*
X207551441Y-115214090D01*
X207696431Y-115001890D01*
X207747440Y-114750000D01*
X207747440Y-113250000D01*
X207703162Y-113014683D01*
X207564090Y-112798559D01*
X207351890Y-112653569D01*
X207100000Y-112602560D01*
X205400000Y-112602560D01*
X205164683Y-112646838D01*
X204948559Y-112785910D01*
X204803569Y-112998110D01*
X204752560Y-113250000D01*
X202435000Y-113250000D01*
X202435162Y-113064833D01*
X202293117Y-112721057D01*
X202030327Y-112457808D01*
X202010000Y-112449367D01*
X202010000Y-112435000D01*
X202028750Y-112435000D01*
X202048153Y-112415597D01*
X202234699Y-112338327D01*
X202250000Y-112323026D01*
X202265301Y-112338327D01*
X202451847Y-112415597D01*
X202471250Y-112435000D01*
X202528750Y-112435000D01*
X202548153Y-112415597D01*
X202734699Y-112338327D01*
X202750000Y-112323026D01*
X202765301Y-112338327D01*
X202951847Y-112415597D01*
X202971250Y-112435000D01*
X203028750Y-112435000D01*
X203048153Y-112415597D01*
X203234699Y-112338327D01*
X203256364Y-112316662D01*
X203373110Y-112396431D01*
X203447808Y-112411558D01*
X203471250Y-112435000D01*
X203501310Y-112435000D01*
X203521753Y-112426532D01*
X203625000Y-112447440D01*
X203875000Y-112447440D01*
X204004589Y-112423056D01*
X204125000Y-112447440D01*
X204375000Y-112447440D01*
X204480705Y-112427550D01*
X204498690Y-112435000D01*
X204528750Y-112435000D01*
X204549062Y-112414688D01*
X204610317Y-112403162D01*
X204812500Y-112273061D01*
X204812500Y-112276250D01*
X204971250Y-112435000D01*
X205001310Y-112435000D01*
X205234699Y-112338327D01*
X205413327Y-112159698D01*
X205510000Y-111926309D01*
X205510000Y-111285750D01*
X205351250Y-111127000D01*
X205022440Y-111127000D01*
X205022440Y-110873000D01*
X205351250Y-110873000D01*
X205510000Y-110714250D01*
X205510000Y-110073691D01*
X205413327Y-109840302D01*
X205234699Y-109661673D01*
X205001310Y-109565000D01*
X204971250Y-109565000D01*
X204922084Y-109614166D01*
X204787401Y-109412599D01*
X204575328Y-109200526D01*
X204684838Y-108936799D01*
X204685162Y-108564833D01*
X204543117Y-108221057D01*
X204280327Y-107957808D01*
X203936799Y-107815162D01*
X203564833Y-107814838D01*
X203221057Y-107956883D01*
X202957808Y-108219673D01*
X202815162Y-108563201D01*
X202814838Y-108935167D01*
X202956883Y-109278943D01*
X202990000Y-109312118D01*
X202990000Y-109565000D01*
X202971250Y-109565000D01*
X202951847Y-109584403D01*
X202765301Y-109661673D01*
X202750000Y-109676974D01*
X202734699Y-109661673D01*
X202548153Y-109584403D01*
X202528750Y-109565000D01*
X202471250Y-109565000D01*
X202451847Y-109584403D01*
X202265301Y-109661673D01*
X202250000Y-109676974D01*
X202234699Y-109661673D01*
X202048153Y-109584403D01*
X202028750Y-109565000D01*
X201971250Y-109565000D01*
X201951847Y-109584403D01*
X201765301Y-109661673D01*
X201743636Y-109683338D01*
X201626890Y-109603569D01*
X201552192Y-109588442D01*
X201528750Y-109565000D01*
X201498690Y-109565000D01*
X201478247Y-109573468D01*
X201375000Y-109552560D01*
X201125000Y-109552560D01*
X201019295Y-109572450D01*
X201001310Y-109565000D01*
X200971250Y-109565000D01*
X200950938Y-109585312D01*
X200889683Y-109596838D01*
X200755931Y-109682905D01*
X200734699Y-109661673D01*
X200548153Y-109584403D01*
X200528750Y-109565000D01*
X200471250Y-109565000D01*
X200451847Y-109584403D01*
X200265301Y-109661673D01*
X200250000Y-109676974D01*
X200234699Y-109661673D01*
X200048153Y-109584403D01*
X200028750Y-109565000D01*
X199971250Y-109565000D01*
X199951847Y-109584403D01*
X199765301Y-109661673D01*
X199750000Y-109676974D01*
X199734699Y-109661673D01*
X199548153Y-109584403D01*
X199528750Y-109565000D01*
X199471250Y-109565000D01*
X199451847Y-109584403D01*
X199265301Y-109661673D01*
X199250000Y-109676974D01*
X199234699Y-109661673D01*
X199048153Y-109584403D01*
X199028750Y-109565000D01*
X198971250Y-109565000D01*
X198951847Y-109584403D01*
X198765301Y-109661673D01*
X198750000Y-109676974D01*
X198734699Y-109661673D01*
X198548153Y-109584403D01*
X198528750Y-109565000D01*
X198471250Y-109565000D01*
X198451847Y-109584403D01*
X198265301Y-109661673D01*
X198250000Y-109676974D01*
X198234699Y-109661673D01*
X198048153Y-109584403D01*
X198028750Y-109565000D01*
X197971250Y-109565000D01*
X197951847Y-109584403D01*
X197877002Y-109615405D01*
X197877002Y-109576082D01*
X197934838Y-109436799D01*
X197935162Y-109064833D01*
X197793117Y-108721057D01*
X197530327Y-108457808D01*
X197186799Y-108315162D01*
X196814833Y-108314838D01*
X196587366Y-108408825D01*
X196361802Y-108315162D01*
X196135000Y-108314964D01*
X196135000Y-108089824D01*
X196639813Y-107585011D01*
X199236401Y-107585011D01*
X199527240Y-107527159D01*
X199773802Y-107362412D01*
X201487410Y-105648804D01*
X201534136Y-105578874D01*
X202001315Y-105485946D01*
X202426310Y-105201974D01*
X202710282Y-104776979D01*
X202810000Y-104275664D01*
X202810000Y-104224336D01*
X202710282Y-103723021D01*
X202529037Y-103451768D01*
X202626441Y-103389090D01*
X202771431Y-103176890D01*
X202822440Y-102925000D01*
X202822440Y-101575000D01*
X202778162Y-101339683D01*
X202639090Y-101123559D01*
X202472891Y-101010000D01*
X202685198Y-101010000D01*
X202990000Y-101314802D01*
X202990000Y-105937537D01*
X202957808Y-105969673D01*
X202815162Y-106313201D01*
X202814838Y-106685167D01*
X202956883Y-107028943D01*
X203219673Y-107292192D01*
X203563201Y-107434838D01*
X203935167Y-107435162D01*
X204278943Y-107293117D01*
X204542192Y-107030327D01*
X204684838Y-106686799D01*
X204685162Y-106314833D01*
X204543117Y-105971057D01*
X204510000Y-105937882D01*
X204510000Y-101000000D01*
X204473201Y-100815001D01*
X204461835Y-100757857D01*
X208165000Y-100757857D01*
X208165000Y-106242143D01*
X211985000Y-106242143D01*
X211985000Y-100757857D01*
X208165000Y-100757857D01*
X204461835Y-100757857D01*
X204452148Y-100709160D01*
X204287401Y-100462599D01*
X203951802Y-100127000D01*
X212373000Y-100127000D01*
X212373000Y-116123000D01*
X177627000Y-116123000D01*
X177627000Y-100127000D01*
X194548198Y-100127000D01*
X193717582Y-100957616D01*
X193717582Y-100957616D01*
G37*
X193717582Y-100957616D02*
X193500000Y-100914336D01*
X192998685Y-101014054D01*
X192573690Y-101298026D01*
X192500000Y-101408311D01*
X192426310Y-101298026D01*
X192001315Y-101014054D01*
X191500000Y-100914336D01*
X190998685Y-101014054D01*
X190573690Y-101298026D01*
X190500000Y-101408311D01*
X190426310Y-101298026D01*
X190001315Y-101014054D01*
X189500000Y-100914336D01*
X188998685Y-101014054D01*
X188573690Y-101298026D01*
X188500000Y-101408311D01*
X188426310Y-101298026D01*
X188001315Y-101014054D01*
X187500000Y-100914336D01*
X186998685Y-101014054D01*
X186573690Y-101298026D01*
X186500000Y-101408311D01*
X186426310Y-101298026D01*
X186001315Y-101014054D01*
X185500000Y-100914336D01*
X184998685Y-101014054D01*
X184789887Y-101153568D01*
X184712400Y-101037600D01*
X184465839Y-100872853D01*
X184174999Y-100815001D01*
X183884160Y-100872853D01*
X183748191Y-100963704D01*
X183500000Y-100914336D01*
X182998685Y-101014054D01*
X182573690Y-101298026D01*
X182289718Y-101723021D01*
X182190000Y-102224336D01*
X182190000Y-102275664D01*
X182289718Y-102776979D01*
X182573690Y-103201974D01*
X182645566Y-103250000D01*
X182573690Y-103298026D01*
X182289718Y-103723021D01*
X182190000Y-104224336D01*
X182190000Y-104275664D01*
X182289718Y-104776979D01*
X182573690Y-105201974D01*
X182740000Y-105313099D01*
X182740000Y-108687537D01*
X182707808Y-108719673D01*
X182565162Y-109063201D01*
X182564838Y-109435167D01*
X182706883Y-109778943D01*
X182969673Y-110042192D01*
X183313201Y-110184838D01*
X183685167Y-110185162D01*
X183740000Y-110162506D01*
X183740000Y-112500000D01*
X183797852Y-112790839D01*
X183839093Y-112852560D01*
X182900000Y-112852560D01*
X182664683Y-112896838D01*
X182448559Y-113035910D01*
X182303569Y-113248110D01*
X182252560Y-113500000D01*
X182252560Y-115000000D01*
X182296838Y-115235317D01*
X182435910Y-115451441D01*
X182648110Y-115596431D01*
X182900000Y-115647440D01*
X184600000Y-115647440D01*
X184835317Y-115603162D01*
X185051441Y-115464090D01*
X185196431Y-115251890D01*
X185247440Y-115000000D01*
X185247440Y-113510000D01*
X186050000Y-113510000D01*
X186340839Y-113452148D01*
X186587401Y-113287401D01*
X187287401Y-112587402D01*
X187410010Y-112403903D01*
X187447808Y-112411558D01*
X187471250Y-112435000D01*
X187501310Y-112435000D01*
X187521753Y-112426532D01*
X187625000Y-112447440D01*
X187875000Y-112447440D01*
X188004589Y-112423056D01*
X188125000Y-112447440D01*
X188375000Y-112447440D01*
X188504589Y-112423056D01*
X188625000Y-112447440D01*
X188875000Y-112447440D01*
X189004589Y-112423056D01*
X189125000Y-112447440D01*
X189375000Y-112447440D01*
X189504589Y-112423056D01*
X189625000Y-112447440D01*
X189875000Y-112447440D01*
X190004589Y-112423056D01*
X190125000Y-112447440D01*
X190375000Y-112447440D01*
X190504589Y-112423056D01*
X190625000Y-112447440D01*
X190875000Y-112447440D01*
X191004589Y-112423056D01*
X191125000Y-112447440D01*
X191375000Y-112447440D01*
X191504589Y-112423056D01*
X191625000Y-112447440D01*
X191875000Y-112447440D01*
X192004589Y-112423056D01*
X192125000Y-112447440D01*
X192375000Y-112447440D01*
X192480705Y-112427550D01*
X192498690Y-112435000D01*
X192528750Y-112435000D01*
X192549062Y-112414688D01*
X192610317Y-112403162D01*
X192750727Y-112312810D01*
X192873110Y-112396431D01*
X192947808Y-112411558D01*
X192971250Y-112435000D01*
X193001310Y-112435000D01*
X193021753Y-112426532D01*
X193125000Y-112447440D01*
X193375000Y-112447440D01*
X193504589Y-112423056D01*
X193625000Y-112447440D01*
X193875000Y-112447440D01*
X193990000Y-112425801D01*
X193990000Y-113500000D01*
X194047852Y-113790839D01*
X194212599Y-114037401D01*
X194712599Y-114537401D01*
X194959161Y-114702148D01*
X195250000Y-114760000D01*
X197450736Y-114760000D01*
X197741575Y-114702148D01*
X197842069Y-114635000D01*
X198120595Y-114635000D01*
X198152731Y-114667192D01*
X198496259Y-114809838D01*
X198868225Y-114810162D01*
X199212001Y-114668117D01*
X199475250Y-114405327D01*
X199617896Y-114061799D01*
X199618220Y-113689833D01*
X199511566Y-113431709D01*
X199616279Y-113179532D01*
X199616603Y-112807566D01*
X199474558Y-112463790D01*
X199408543Y-112397660D01*
X199451847Y-112415597D01*
X199471250Y-112435000D01*
X199528750Y-112435000D01*
X199548153Y-112415597D01*
X199734699Y-112338327D01*
X199750000Y-112323026D01*
X199765301Y-112338327D01*
X199951847Y-112415597D01*
X199971250Y-112435000D01*
X200028750Y-112435000D01*
X200048153Y-112415597D01*
X200234699Y-112338327D01*
X200250000Y-112323026D01*
X200265301Y-112338327D01*
X200451847Y-112415597D01*
X200471250Y-112435000D01*
X200490000Y-112435000D01*
X200490000Y-113000000D01*
X200547852Y-113290839D01*
X200564941Y-113316415D01*
X200564838Y-113435167D01*
X200706883Y-113778943D01*
X200969673Y-114042192D01*
X201313201Y-114184838D01*
X201685167Y-114185162D01*
X202028943Y-114043117D01*
X202292192Y-113780327D01*
X202434838Y-113436799D01*
X202435000Y-113250000D01*
X204752560Y-113250000D01*
X204752560Y-114750000D01*
X204796838Y-114985317D01*
X204935910Y-115201441D01*
X205148110Y-115346431D01*
X205400000Y-115397440D01*
X207100000Y-115397440D01*
X207335317Y-115353162D01*
X207551441Y-115214090D01*
X207696431Y-115001890D01*
X207747440Y-114750000D01*
X207747440Y-113250000D01*
X207703162Y-113014683D01*
X207564090Y-112798559D01*
X207351890Y-112653569D01*
X207100000Y-112602560D01*
X205400000Y-112602560D01*
X205164683Y-112646838D01*
X204948559Y-112785910D01*
X204803569Y-112998110D01*
X204752560Y-113250000D01*
X202435000Y-113250000D01*
X202435162Y-113064833D01*
X202293117Y-112721057D01*
X202030327Y-112457808D01*
X202010000Y-112449367D01*
X202010000Y-112435000D01*
X202028750Y-112435000D01*
X202048153Y-112415597D01*
X202234699Y-112338327D01*
X202250000Y-112323026D01*
X202265301Y-112338327D01*
X202451847Y-112415597D01*
X202471250Y-112435000D01*
X202528750Y-112435000D01*
X202548153Y-112415597D01*
X202734699Y-112338327D01*
X202750000Y-112323026D01*
X202765301Y-112338327D01*
X202951847Y-112415597D01*
X202971250Y-112435000D01*
X203028750Y-112435000D01*
X203048153Y-112415597D01*
X203234699Y-112338327D01*
X203256364Y-112316662D01*
X203373110Y-112396431D01*
X203447808Y-112411558D01*
X203471250Y-112435000D01*
X203501310Y-112435000D01*
X203521753Y-112426532D01*
X203625000Y-112447440D01*
X203875000Y-112447440D01*
X204004589Y-112423056D01*
X204125000Y-112447440D01*
X204375000Y-112447440D01*
X204480705Y-112427550D01*
X204498690Y-112435000D01*
X204528750Y-112435000D01*
X204549062Y-112414688D01*
X204610317Y-112403162D01*
X204812500Y-112273061D01*
X204812500Y-112276250D01*
X204971250Y-112435000D01*
X205001310Y-112435000D01*
X205234699Y-112338327D01*
X205413327Y-112159698D01*
X205510000Y-111926309D01*
X205510000Y-111285750D01*
X205351250Y-111127000D01*
X205022440Y-111127000D01*
X205022440Y-110873000D01*
X205351250Y-110873000D01*
X205510000Y-110714250D01*
X205510000Y-110073691D01*
X205413327Y-109840302D01*
X205234699Y-109661673D01*
X205001310Y-109565000D01*
X204971250Y-109565000D01*
X204922084Y-109614166D01*
X204787401Y-109412599D01*
X204575328Y-109200526D01*
X204684838Y-108936799D01*
X204685162Y-108564833D01*
X204543117Y-108221057D01*
X204280327Y-107957808D01*
X203936799Y-107815162D01*
X203564833Y-107814838D01*
X203221057Y-107956883D01*
X202957808Y-108219673D01*
X202815162Y-108563201D01*
X202814838Y-108935167D01*
X202956883Y-109278943D01*
X202990000Y-109312118D01*
X202990000Y-109565000D01*
X202971250Y-109565000D01*
X202951847Y-109584403D01*
X202765301Y-109661673D01*
X202750000Y-109676974D01*
X202734699Y-109661673D01*
X202548153Y-109584403D01*
X202528750Y-109565000D01*
X202471250Y-109565000D01*
X202451847Y-109584403D01*
X202265301Y-109661673D01*
X202250000Y-109676974D01*
X202234699Y-109661673D01*
X202048153Y-109584403D01*
X202028750Y-109565000D01*
X201971250Y-109565000D01*
X201951847Y-109584403D01*
X201765301Y-109661673D01*
X201743636Y-109683338D01*
X201626890Y-109603569D01*
X201552192Y-109588442D01*
X201528750Y-109565000D01*
X201498690Y-109565000D01*
X201478247Y-109573468D01*
X201375000Y-109552560D01*
X201125000Y-109552560D01*
X201019295Y-109572450D01*
X201001310Y-109565000D01*
X200971250Y-109565000D01*
X200950938Y-109585312D01*
X200889683Y-109596838D01*
X200755931Y-109682905D01*
X200734699Y-109661673D01*
X200548153Y-109584403D01*
X200528750Y-109565000D01*
X200471250Y-109565000D01*
X200451847Y-109584403D01*
X200265301Y-109661673D01*
X200250000Y-109676974D01*
X200234699Y-109661673D01*
X200048153Y-109584403D01*
X200028750Y-109565000D01*
X199971250Y-109565000D01*
X199951847Y-109584403D01*
X199765301Y-109661673D01*
X199750000Y-109676974D01*
X199734699Y-109661673D01*
X199548153Y-109584403D01*
X199528750Y-109565000D01*
X199471250Y-109565000D01*
X199451847Y-109584403D01*
X199265301Y-109661673D01*
X199250000Y-109676974D01*
X199234699Y-109661673D01*
X199048153Y-109584403D01*
X199028750Y-109565000D01*
X198971250Y-109565000D01*
X198951847Y-109584403D01*
X198765301Y-109661673D01*
X198750000Y-109676974D01*
X198734699Y-109661673D01*
X198548153Y-109584403D01*
X198528750Y-109565000D01*
X198471250Y-109565000D01*
X198451847Y-109584403D01*
X198265301Y-109661673D01*
X198250000Y-109676974D01*
X198234699Y-109661673D01*
X198048153Y-109584403D01*
X198028750Y-109565000D01*
X197971250Y-109565000D01*
X197951847Y-109584403D01*
X197877002Y-109615405D01*
X197877002Y-109576082D01*
X197934838Y-109436799D01*
X197935162Y-109064833D01*
X197793117Y-108721057D01*
X197530327Y-108457808D01*
X197186799Y-108315162D01*
X196814833Y-108314838D01*
X196587366Y-108408825D01*
X196361802Y-108315162D01*
X196135000Y-108314964D01*
X196135000Y-108089824D01*
X196639813Y-107585011D01*
X199236401Y-107585011D01*
X199527240Y-107527159D01*
X199773802Y-107362412D01*
X201487410Y-105648804D01*
X201534136Y-105578874D01*
X202001315Y-105485946D01*
X202426310Y-105201974D01*
X202710282Y-104776979D01*
X202810000Y-104275664D01*
X202810000Y-104224336D01*
X202710282Y-103723021D01*
X202529037Y-103451768D01*
X202626441Y-103389090D01*
X202771431Y-103176890D01*
X202822440Y-102925000D01*
X202822440Y-101575000D01*
X202778162Y-101339683D01*
X202639090Y-101123559D01*
X202472891Y-101010000D01*
X202685198Y-101010000D01*
X202990000Y-101314802D01*
X202990000Y-105937537D01*
X202957808Y-105969673D01*
X202815162Y-106313201D01*
X202814838Y-106685167D01*
X202956883Y-107028943D01*
X203219673Y-107292192D01*
X203563201Y-107434838D01*
X203935167Y-107435162D01*
X204278943Y-107293117D01*
X204542192Y-107030327D01*
X204684838Y-106686799D01*
X204685162Y-106314833D01*
X204543117Y-105971057D01*
X204510000Y-105937882D01*
X204510000Y-101000000D01*
X204473201Y-100815001D01*
X204461835Y-100757857D01*
X208165000Y-100757857D01*
X208165000Y-106242143D01*
X211985000Y-106242143D01*
X211985000Y-100757857D01*
X208165000Y-100757857D01*
X204461835Y-100757857D01*
X204452148Y-100709160D01*
X204287401Y-100462599D01*
X203951802Y-100127000D01*
X212373000Y-100127000D01*
X212373000Y-116123000D01*
X177627000Y-116123000D01*
X177627000Y-100127000D01*
X194548198Y-100127000D01*
X193717582Y-100957616D01*
G36*
X199875000Y-111127000D02*
X198125000Y-111127000D01*
X198125000Y-110873000D01*
X199875000Y-110873000D01*
X199875000Y-111127000D01*
X199875000Y-111127000D01*
G37*
X199875000Y-111127000D02*
X198125000Y-111127000D01*
X198125000Y-110873000D01*
X199875000Y-110873000D01*
X199875000Y-111127000D01*
G36*
X193627000Y-104123000D02*
X193647000Y-104123000D01*
X193647000Y-104377000D01*
X193627000Y-104377000D01*
X193627000Y-105394224D01*
X193724005Y-105453504D01*
X193707808Y-105469673D01*
X193565162Y-105813201D01*
X193564838Y-106185167D01*
X193706883Y-106528943D01*
X193969673Y-106792192D01*
X193998315Y-106804085D01*
X193005138Y-107797262D01*
X193010000Y-107772820D01*
X193010000Y-105564802D01*
X193037401Y-105537401D01*
X193076474Y-105478925D01*
X193170600Y-105517910D01*
X193373000Y-105394224D01*
X193373000Y-104377000D01*
X193353000Y-104377000D01*
X193353000Y-104123000D01*
X193373000Y-104123000D01*
X193373000Y-104103000D01*
X193627000Y-104103000D01*
X193627000Y-104123000D01*
X193627000Y-104123000D01*
G37*
X193627000Y-104123000D02*
X193647000Y-104123000D01*
X193647000Y-104377000D01*
X193627000Y-104377000D01*
X193627000Y-105394224D01*
X193724005Y-105453504D01*
X193707808Y-105469673D01*
X193565162Y-105813201D01*
X193564838Y-106185167D01*
X193706883Y-106528943D01*
X193969673Y-106792192D01*
X193998315Y-106804085D01*
X193005138Y-107797262D01*
X193010000Y-107772820D01*
X193010000Y-105564802D01*
X193037401Y-105537401D01*
X193076474Y-105478925D01*
X193170600Y-105517910D01*
X193373000Y-105394224D01*
X193373000Y-104377000D01*
X193353000Y-104377000D01*
X193353000Y-104123000D01*
X193373000Y-104123000D01*
X193373000Y-104103000D01*
X193627000Y-104103000D01*
X193627000Y-104123000D01*
M02*
